<svg width="140" height="153" viewBox="0 0 140 153" fill="none" xmlns="http://www.w3.org/2000/svg">
<path d="M0.114189 9.99794C2.04822 9.90572 4.79567 10.0848 6.2104 9.20051C6.38817 7.75752 6.57239 6.49896 6.82903 5.06682C9.06955 3.68349 9.73612 5.35431 12.6299 3.96013C12.9284 2.63106 12.9217 1.94754 12.9766 0.575061C13.9226 -0.0379418 14.5735 0.1031 16.0457 0.0976756C52.5815 0.0108787 89.1254 0.260391 125.66 0C125.934 0.265815 126.208 0.53162 126.482 0.80286C126.568 3.55324 126.22 3.9818 128.632 5.00708C129.958 4.69787 130.731 4.36697 132.037 4.7467C133.089 6.30905 132.789 7.29637 132.659 9.2276C134.542 10.1986 136.861 9.95454 139.019 9.92742L139.139 129.414C137.11 129.403 135.167 129.121 133.513 130.119C133.018 131.416 133.138 131.872 133.212 133.239C131.04 136.358 129.827 135.072 126.64 135.604C126.651 137.942 127.054 138.604 125.975 140.334C124.288 140.801 123.945 140.752 122.164 140.763C120.205 140.437 111.504 140.562 109.112 140.557H79.2309L36.6066 140.589C30.6569 140.595 18.6251 140.291 13.1337 140.991C11.9324 138.175 13.5533 137.34 11.6395 135.219C9.86425 135.376 8.47995 135.707 6.90123 134.996C5.97302 133.168 6.32741 132.94 6.44052 130.722C6.83375 127.521 6.66222 122.405 6.64893 119.053L12.7195 119.405L13.1449 119.443C13.2255 116.845 12.5908 114.903 13.5834 112.483C15.3926 111.284 15.7859 111.632 18.1565 111.496C18.2845 109.711 18.5101 107.84 18.694 106.05L12.8073 105.99C12.7089 108.485 13.1116 109.288 11.8696 111.062C9.90694 111.529 8.67757 111.388 6.68088 111.339L6.64356 111.876C6.26194 118.266 6.19614 123.208 6.30723 129.615L0 129.344C0.663537 90.182 0.11126 49.3278 0.114189 9.99794Z" fill="#201510"/>
<path d="M0.114189 9.99794C2.04822 9.90572 4.79567 10.0848 6.2104 9.20051C6.38817 7.75752 6.57239 6.49896 6.82903 5.06682C9.06955 3.68349 9.73612 5.35431 12.6299 3.96013C12.9284 2.63106 12.9217 1.94754 12.9766 0.575061C13.9226 -0.0379418 14.5735 0.1031 16.0457 0.0976756C52.5815 0.0108787 89.1254 0.260391 125.66 0C125.934 0.265815 126.208 0.53162 126.482 0.80286C126.568 3.55324 126.22 3.9818 128.632 5.00708C129.958 4.69787 130.731 4.36697 132.037 4.7467C133.089 6.30905 132.789 7.29637 132.659 9.2276L131.662 9.66161L126.976 10.1769L126.681 10.4916C120.324 9.88404 65.971 9.80261 61.4474 11.0395C61.4881 13.3342 61.1231 14.0828 62.1749 15.8187C63.7941 16.3721 64.7548 16.1931 66.4435 16.1063C68.979 16.1063 70.2098 16.1768 72.7187 16.5186L72.7556 39.8072C72.7464 42.9536 72.5494 50.8792 72.9693 53.6405C75.7879 55.9514 76.4405 52.9678 78.037 54.9804C78.1487 57.1178 78.664 66.9367 77.891 68.3525C75.6827 68.3634 74.479 67.9728 72.8847 69.009C72.685 73.1807 72.5142 103.001 73.0886 106.131C74.9601 106.196 76.198 106.212 78.0695 106.516C79.3058 107.867 79.1468 107.954 79.0508 110.319C79.0313 110.709 79.0058 111.105 78.9743 111.496C73.1261 111.539 67.2773 111.529 61.4296 111.464L18.1565 111.496C18.2845 109.711 18.5101 107.84 18.694 106.05L12.8073 105.99C12.7089 108.485 13.1116 109.288 11.8696 111.062C9.90694 111.529 8.67757 111.388 6.68088 111.339L6.64356 111.876C6.26194 118.266 6.19614 123.208 6.30723 129.615L0 129.344C0.663537 90.182 0.11126 49.3278 0.114189 9.99794Z" fill="#3F281B"/>
<path d="M0.114189 9.99794C2.04822 9.90572 4.79567 10.0848 6.2104 9.20051C6.38817 7.75752 6.57239 6.49896 6.82903 5.06682C9.06955 3.68349 9.73612 5.35431 12.6299 3.96013C12.9284 2.63106 12.9217 1.94754 12.9766 0.575061C13.9226 -0.0379418 14.5735 0.1031 16.0457 0.0976756C52.5815 0.0108787 89.1254 0.260391 125.66 0C125.934 0.265815 126.208 0.53162 126.482 0.80286C126.568 3.55324 126.22 3.9818 128.632 5.00708C129.958 4.69787 130.731 4.36697 132.037 4.7467C133.089 6.30905 132.789 7.29637 132.659 9.2276L131.662 9.66161L126.976 10.1769L126.681 10.4916C120.324 9.88404 65.971 9.80261 61.4474 11.0395L60.9782 10.8822C58.5561 9.69958 18.9343 10.4157 12.5803 10.2204C12.5474 11.978 12.4096 14.3812 12.654 16.0683C13.1512 27.9215 12.839 41.3533 12.8133 53.3259C12.7344 58.7941 12.7299 64.2568 12.8 69.725L12.8073 105.99C12.7089 108.485 13.1116 109.288 11.8696 111.062C9.90694 111.529 8.67757 111.388 6.68088 111.339L6.64356 111.876C6.26194 118.266 6.19614 123.208 6.30723 129.615L0 129.344C0.663537 90.182 0.11126 49.3278 0.114189 9.99794Z" fill="#191312"/>
<path d="M12.3809 9.97634C12.6175 8.2838 12.8341 6.58583 13.0307 4.88787C14.3195 4.39421 117.672 4.17179 126.184 4.67629C127.043 7.367 126.534 8.05596 126.976 10.1771L126.681 10.4917C120.324 9.88416 65.9708 9.80272 61.4473 11.0396L60.978 10.8823C58.556 9.6997 18.9342 10.4158 12.5801 10.2205L12.3809 9.97634Z" fill="#AE6B17"/>
<path d="M6.68075 111.34C6.30227 108.243 6.50277 100.127 6.50299 96.6934L6.51215 68.2566L6.50797 31.6338C6.48736 25.1186 6.17404 16.7319 6.61044 10.4282C8.35874 9.58197 10.3579 9.902 12.3809 9.97794L12.5802 10.2221C12.5472 11.9797 12.4095 14.3829 12.6539 16.07C13.1511 27.9232 12.8389 41.355 12.8131 53.3276C12.7342 58.7958 12.7298 64.2585 12.7999 69.7268L12.8072 105.992C12.7088 108.487 13.1114 109.29 11.8695 111.064C9.90681 111.53 8.67743 111.389 6.68075 111.34Z" fill="#BF781E"/>
<path d="M12.5802 10.2213C18.9342 10.4165 58.556 9.70045 60.9781 10.8831L61.4473 11.0403C61.488 13.335 61.1229 14.0837 62.1747 15.8196C63.794 16.373 64.7547 16.1939 66.4434 16.1072C66.4412 22.5247 66.822 48.401 66.1184 52.8548C64.6842 53.6793 63.5672 53.4894 61.8818 53.4894C61.3117 55.0518 61.3849 55.8004 61.4397 57.4713C60.5392 58.5834 61.1001 58.2091 59.6626 58.5725C50.8156 57.8999 40.1807 58.6701 31.1629 58.4531C27.2669 58.3609 23.0086 58.8166 19.1821 58.1222C18.3728 56.7172 18.6858 55.1115 18.7628 53.3973L12.8131 53.3267C12.8389 41.3542 13.1511 27.9223 12.6539 16.0691C12.4095 14.382 12.5472 11.9789 12.5802 10.2213Z" fill="#3F281B"/>
<path d="M12.5802 10.2213C18.9342 10.4165 58.556 9.70045 60.9781 10.8831L61.4473 11.0403C61.488 13.335 61.1229 14.0837 62.1747 15.8196C63.794 16.373 64.7547 16.1939 66.4434 16.1072C66.4412 22.5247 66.822 48.401 66.1184 52.8548C64.6842 53.6793 63.5672 53.4894 61.8818 53.4894C59.7109 51.2002 60.5642 26.6096 60.587 21.9442C47.2148 21.4994 32.6313 21.7326 19.1794 21.711C19.1669 27.0869 19.7647 49.1334 18.7628 53.3973L12.8131 53.3267C12.8389 41.3542 13.1511 27.9223 12.6539 16.0691C12.4095 14.382 12.5472 11.9789 12.5802 10.2213Z" fill="#201510"/>
<path d="M12.5802 10.2213C18.9342 10.4165 58.556 9.70045 60.9781 10.8831C54.8326 10.8505 22.6208 10.167 18.9809 11.6154C18.548 14.1434 18.9716 14.241 17.3871 15.7545C15.469 16.1614 14.5647 16.0963 12.6539 16.0691C12.4095 14.382 12.5472 11.9789 12.5802 10.2213Z" fill="#995B16"/>
<path d="M66.4434 16.1074C68.9789 16.1074 70.2097 16.1779 72.7186 16.5197L72.7555 39.8084C72.7463 42.9547 72.5494 50.8804 72.9692 53.6416C75.7879 55.9526 76.4404 52.9689 78.0369 54.9815C78.1486 57.1189 78.664 66.9378 77.891 68.3537C75.6826 68.3645 74.4789 67.974 72.8846 69.0101C72.685 73.1818 72.5141 103.002 73.0886 106.132C74.9601 106.197 76.1979 106.213 78.0694 106.517C79.3057 107.868 79.1468 107.955 79.0507 110.32C79.0312 110.711 79.0057 111.107 78.9743 111.497C73.126 111.541 67.2772 111.53 61.4295 111.465L61.4577 106.268C63.4062 106.197 64.374 106.306 66.1554 105.492C66.5411 101.798 66.7998 71.4404 65.8174 69.992C64.4249 69.7479 63.4887 69.6557 62.0772 69.5472C61.238 68.4948 61.3714 65.0826 61.1555 63.4334C49.0077 64.2309 31.5535 63.645 18.854 63.6558C18.6994 66.1947 19.0617 67.4912 17.7989 69.3302C15.8753 69.8944 14.785 69.7533 12.7999 69.7262C12.7298 64.258 12.7343 58.7952 12.8132 53.327L18.7629 53.3975C18.6858 55.1118 18.3728 56.7175 19.1822 58.1225C23.0087 58.8169 27.267 58.3612 31.1629 58.4534C40.1808 58.6704 50.8157 57.9001 59.6627 58.5728C61.1002 58.2093 60.5393 58.5836 61.4398 57.4716C61.385 55.8007 61.3118 55.052 61.8819 53.4897C63.5673 53.4897 64.6842 53.6796 66.1185 52.855C66.8221 48.4013 66.4413 22.525 66.4434 16.1074Z" fill="#995B16"/>
<path d="M12.8132 53.3262L18.7629 53.3967C18.6858 55.1109 18.3728 56.7167 19.1822 58.1217C23.0087 58.8161 27.267 58.3604 31.1629 58.4526C40.1808 58.6696 50.8157 57.8993 59.6627 58.572L59.1376 58.6371C52.3482 59.4725 22.7418 58.2898 19.3455 59.3314C18.8225 60.4164 19.0715 61.1813 19.2294 62.391C22.4782 64.3765 54.1828 62.1144 61.1555 63.4326C49.0077 64.23 31.5535 63.6442 18.854 63.655C18.6994 66.1938 19.0617 67.4903 17.7989 69.3293C15.8753 69.8935 14.785 69.7525 12.7999 69.7253C12.7298 64.2571 12.7343 58.7944 12.8132 53.3262Z" fill="#885210"/>
<path d="M61.1554 63.4336C61.3713 65.0827 61.2379 68.4949 62.0771 69.5474C63.4885 69.6559 64.4248 69.748 65.8173 69.9922C66.7997 71.4406 66.541 101.798 66.1553 105.492C64.3738 106.306 63.4061 106.197 61.4576 106.268C60.1568 102.194 60.6287 80.8201 60.671 75.0318L19.2401 74.9722C19.1723 80.218 19.8249 102.357 18.6938 106.051L12.8071 105.991L12.7998 69.7264C14.7849 69.7535 15.8752 69.8945 17.7988 69.3304C19.0616 67.4913 18.6993 66.1948 18.8539 63.656C31.5534 63.6452 49.0076 64.231 61.1554 63.4336Z" fill="#201510"/>
<path d="M78.9743 111.497C92.1322 111.503 108.244 111.069 121.153 111.562L126.62 111.779C129.149 111.964 129.684 112.007 132.24 111.584L132.515 111.595C132.504 114.107 132.547 116.624 132.641 119.13C132.922 133.218 131.543 125.938 126.973 130.511C126.396 132.437 126.422 133.273 126.308 135.247L126.64 135.605C126.651 137.943 127.054 138.605 125.975 140.336C124.288 140.802 123.945 140.753 122.164 140.764C120.204 140.439 111.504 140.563 109.112 140.558H79.2309L36.6066 140.591C30.6569 140.596 18.6251 140.292 13.1336 140.992C11.9323 138.177 13.5533 137.341 11.6395 135.22C9.86421 135.377 8.47991 135.708 6.90119 134.998C5.97298 133.169 6.32737 132.942 6.44048 130.723C6.83371 127.522 6.66218 122.407 6.64889 119.054L12.7194 119.407L13.1448 119.445C13.2255 116.846 12.5908 114.904 13.5834 112.485C15.3926 111.286 15.7859 111.633 18.1564 111.497L61.4295 111.465C67.2772 111.53 73.126 111.541 78.9743 111.497Z" fill="#3F281B"/>
<path d="M78.9744 111.497C92.1323 111.503 108.244 111.069 121.153 111.562L126.62 111.779L126.578 119.559L50.0103 119.575C40.853 119.575 21.4628 120.188 13.1449 119.445C13.2255 116.846 12.5909 114.904 13.5835 112.485C15.3927 111.286 15.786 111.633 18.1565 111.497L61.4296 111.465C67.2773 111.53 73.1261 111.541 78.9744 111.497Z" fill="#BF781E"/>
<path d="M132.515 111.595C132.504 114.107 132.546 116.624 132.641 119.13C131.223 119.396 128.311 119.51 126.764 119.618L126.546 126.22C89.743 126.952 49.8499 126.611 12.8923 126.236C12.8556 123.855 12.9918 121.815 13.1446 119.445C21.4625 120.188 40.8527 119.575 50.01 119.575L126.578 119.558L126.619 111.779C129.148 111.964 129.684 112.007 132.24 111.584L132.515 111.595Z" fill="#201510"/>
<path d="M11.6392 135.218C34.042 134.584 59.0088 135.213 81.7036 135.18L110.955 135.137C115.157 135.132 122.281 134.904 126.307 135.245L126.64 135.604C126.651 137.942 127.053 138.603 125.974 140.334C124.288 140.8 123.944 140.752 122.164 140.762C120.204 140.437 111.504 140.562 109.112 140.556H79.2306L36.6062 140.589C30.6565 140.594 18.6248 140.291 13.1333 140.99C11.932 138.175 13.553 137.339 11.6392 135.218Z" fill="#191312"/>
<path d="M79.5153 21.6523C93.1321 21.8476 106.751 21.9182 120.369 21.8693C120.317 26.7896 119.668 50.5991 121.144 53.4688C121.234 55.1614 121.557 56.7291 120.758 58.1179C115.916 58.6115 107.846 58.3999 102.793 58.3782C95.3193 58.3511 86.6709 58.5736 79.2907 58.1287C78.7 57.0817 79.1464 54.7002 79.2744 53.3549C79.9813 44.9898 79.5478 30.3646 79.5153 21.6523Z" fill="#3F281B"/>
<path d="M79.529 74.9727L120.241 75.0269C120.25 78.6615 120.035 104.288 121.042 106.095C121.109 107.912 121.208 109.74 121.153 111.563C108.244 111.069 92.132 111.503 78.9741 111.498C79.0055 111.107 79.031 110.711 79.0506 110.321C79.1466 107.955 79.3055 107.869 78.0692 106.518C76.1978 106.214 74.9599 106.198 73.0884 106.133C75.2832 105.975 77.3006 105.84 79.5051 105.802L79.529 74.9727Z" fill="#3F281B"/>
<path d="M131.662 9.66253L132.659 9.22852C134.542 10.1996 136.861 9.95546 139.019 9.92834L139.139 129.415C137.11 129.404 135.167 129.122 133.513 130.12C133.018 131.417 133.138 131.872 133.212 133.24C131.039 136.359 129.827 135.073 126.64 135.605L126.308 135.247C126.422 133.272 126.395 132.437 126.973 130.511C131.543 125.938 132.922 133.218 132.641 119.13C132.546 116.623 132.504 114.106 132.515 111.595L132.24 111.584C129.684 112.007 129.148 111.963 126.62 111.779L121.153 111.562C121.208 109.739 121.109 107.911 121.042 106.094C123.599 106.05 124.918 106.457 126.591 105.063L126.522 102.758C127.253 94.7506 126.382 82.3766 126.618 74.0821C127.203 53.5166 125.993 30.8356 126.681 10.4925L126.976 10.1779L131.662 9.66253Z" fill="#201510"/>
<path d="M131.662 9.66211C131.95 9.95505 132.239 10.248 132.527 10.5409C133.002 42.097 132.619 73.7833 132.695 105.35C132.701 107.846 132.709 110.092 132.515 111.594L132.24 111.583C129.684 112.006 129.148 111.963 126.62 111.779L121.153 111.562C121.208 109.739 121.109 107.911 121.042 106.093C123.599 106.05 124.918 106.457 126.591 105.063L126.522 102.757C127.253 94.7502 126.382 82.3762 126.618 74.0817C127.203 53.5162 125.993 30.8351 126.681 10.4921L126.976 10.1774L131.662 9.66211Z" fill="#BF781E"/>
<path d="M126.591 105.062C126.556 107.52 126.118 109.001 127.164 110.905C128.893 111.621 130.355 111.513 132.24 111.583C129.684 112.006 129.148 111.963 126.62 111.778L121.153 111.561C121.208 109.739 121.109 107.911 121.042 106.093C123.599 106.05 124.918 106.457 126.591 105.062Z" fill="#885210"/>
<path d="M79.114 63.6559C84.2777 63.6451 118.976 62.9669 120.807 64.5076C120.951 66.0591 121.074 67.616 121.174 69.1675C122.402 70.1168 123.325 69.5526 125.569 70.0517C126.932 72.6827 126.125 96.872 126.522 102.758L126.591 105.063C124.918 106.458 123.599 106.051 121.042 106.094C120.035 104.288 120.25 78.6609 120.241 75.0263L79.529 74.972L79.5051 105.801C77.3006 105.839 75.2832 105.975 73.0884 106.132C74.4641 99.2372 71.9232 73.0571 74.3577 69.7317C76.3323 69.8781 76.5802 70.0138 78.2401 69.1187C79.4921 67.4749 79.1574 65.8313 79.114 63.6559Z" fill="#201510"/>
<path d="M61.4474 11.0394C65.971 9.8025 120.324 9.88393 126.681 10.4915C125.993 30.8345 127.203 53.5156 126.618 74.0811C126.382 82.3756 127.253 94.7495 126.522 102.757C126.125 96.8706 126.932 72.6814 125.569 70.0504C123.325 69.5513 122.403 70.1155 121.174 69.1661C121.074 67.6147 120.951 66.0578 120.807 64.5063C118.976 62.9656 84.2779 63.6437 79.1142 63.6546C79.1576 65.8299 79.4923 67.4736 78.2403 69.1173C76.5804 70.0124 76.3325 69.8768 74.3579 69.7303C71.9234 73.0558 74.4643 99.2358 73.0886 106.131C72.5141 103.001 72.685 73.1805 72.8846 69.0089C74.4789 67.9727 75.6826 68.3633 77.891 68.3524C78.664 66.9366 78.1487 57.1176 78.0369 54.9803C76.4404 52.9677 75.7879 55.9513 72.9692 53.6404C75.1017 53.4993 77.1332 53.3366 79.2743 53.3528C79.1462 54.6982 78.6998 57.0797 79.2905 58.1267C86.6707 58.5715 95.3191 58.3491 102.793 58.3762C107.846 58.3979 115.916 58.6095 120.758 58.1158C121.557 56.7271 121.234 55.1593 121.144 53.4668C122.543 53.4831 126.639 53.7597 126.361 51.4108C125.805 46.7183 127.206 18.5473 125.585 16.3015C124.277 16.2201 122.969 16.117 121.664 16.0031C120.215 13.9959 121.978 13.1931 120.472 11.1642C116.981 10.6814 106.781 10.8224 102.889 10.8712C96.0005 10.958 86.643 10.5511 79.9513 11.137C78.8235 12.4661 79.1723 13.4154 79.0556 15.5202C77.9404 16.4425 76.467 15.8458 74.0336 16.4425C72.0742 20.3158 74.3124 46.2247 72.9692 53.6404C72.5494 50.8791 72.7463 42.9535 72.7555 39.8071L72.7186 16.5185C70.2098 16.1767 68.9789 16.1062 66.4435 16.1062C64.7548 16.193 63.7941 16.372 62.1748 15.8186C61.123 14.0827 61.4881 13.334 61.4474 11.0394Z" fill="#885210"/>
<path d="M79.1692 58.9585C91.3051 58.9097 108.914 58.3021 120.62 59.0507C121.51 60.3418 121.191 61.2478 121.2 63.0651C110.866 63.0976 89.3235 63.792 79.8689 62.8752C78.8697 61.6275 79.2066 60.8626 79.1692 58.9585Z" fill="#AE6B17"/>
<path d="M122.164 140.763C123.27 141.929 123.813 141.907 125.377 142.211C124.515 143.149 124.183 143.741 123.516 144.793C115.098 149.632 70.4048 147.229 57.3825 148.667C60.3568 149.225 69.2363 148.976 72.6999 149.03C85.1483 149.231 97.5988 148.01 110.061 148.84C112.818 149.025 114.34 148.07 116.25 148.325L115.18 149.985L116.178 150.777L116.059 151.406C99.8956 152.312 86.346 151.39 70.4368 151.189L70.8002 152.046L70.5105 152.496C66.6564 151.932 62.7729 151.596 58.8791 151.482C53.2034 151.341 14.1305 152.095 12.2862 150.402L13.0854 148.813C12.473 148.216 9.6719 147.652 8.81812 147.413C2.20765 145.591 3.86183 140.171 1.58876 135.761C0.0435673 132.766 0.432509 131.112 3.53717 129.582C6.02847 130.51 5.38224 133.542 6.14732 135.652C6.81303 137.486 9.61863 135.495 11.6341 136.884C11.3636 139.276 10.7886 140.177 12.8234 141.712L13.1333 140.99C18.6248 140.291 30.6566 140.594 36.6063 140.589L79.2306 140.556H109.112C111.504 140.562 120.204 140.437 122.164 140.763Z" fill="#312720" fill-opacity="0.0666667"/>
<path d="M12.8071 105.99L18.6938 106.05C18.5099 107.84 18.2842 109.712 18.1562 111.496C15.7856 111.632 15.3924 111.285 13.5831 112.484C12.5906 114.903 13.2252 116.845 13.1446 119.444L12.7192 119.406L6.64867 119.053C6.66196 122.406 6.83348 127.521 6.44025 130.722L6.30697 129.615C6.19587 123.209 6.26168 118.267 6.6433 111.876L6.68062 111.339C8.6773 111.388 9.90668 111.529 11.8694 111.062C13.1113 109.289 12.7086 108.486 12.8071 105.99Z" fill="#201510"/>
<path d="M12.8073 105.99L18.694 106.05C18.5101 107.84 18.2845 109.712 18.1565 111.496C15.7859 111.632 15.3926 111.285 13.5834 112.484C12.5908 114.903 13.2255 116.845 13.1449 119.444L12.7195 119.406C12.7767 117.317 13.1431 114.198 12.174 112.527C10.494 111.437 8.74982 111.789 6.64355 111.876L6.68088 111.339C8.67756 111.388 9.90694 111.529 11.8696 111.062C13.1116 109.289 12.7089 108.486 12.8073 105.99Z" fill="#995B16"/>
</svg>
